<svg width="8" height="7" viewBox="0 0 8 7" fill="none" xmlns="http://www.w3.org/2000/svg">
<path d="M4.29955 6.85298C4.25481 6.80654 4.21931 6.75137 4.19509 6.69061C4.17087 6.62985 4.1584 6.56471 4.1584 6.49892C4.1584 6.43313 4.17087 6.36799 4.19509 6.30724C4.21931 6.24648 4.25481 6.1913 4.29955 6.14486L6.35875 4.00009H0.479906C0.352627 4.00009 0.230561 3.94742 0.140562 3.85368C0.0505619 3.75994 0 3.6328 0 3.50024C0 3.36767 0.0505619 3.24053 0.140562 3.14679C0.230561 3.05305 0.352627 3.00039 0.479906 3.00039L6.35875 3.00039L4.29955 0.854778C4.2094 0.760875 4.15875 0.633516 4.15875 0.500717C4.15875 0.367919 4.2094 0.24056 4.29955 0.146657C4.38971 0.0527541 4.51198 1.39926e-09 4.63948 0C4.76698 -1.39926e-09 4.88926 0.0527541 4.97942 0.146657L7.85885 3.14576C7.90359 3.1922 7.93909 3.24738 7.96331 3.30813C7.98753 3.36889 8 3.43403 8 3.49982C8 3.56561 7.98753 3.63075 7.96331 3.6915C7.93909 3.75226 7.90359 3.80744 7.85885 3.85388L4.97942 6.85298C4.93483 6.89958 4.88185 6.93656 4.82352 6.96178C4.76519 6.98701 4.70265 7 4.63948 7C4.57632 7 4.51378 6.98701 4.45545 6.96178C4.39711 6.93656 4.34414 6.89958 4.29955 6.85298Z" fill="#168ADD"/>
</svg>
