<svg width="14" height="14" viewBox="0 0 14 14" fill="none" xmlns="http://www.w3.org/2000/svg">
<path d="M7 14C6.03166 14 5.12166 13.8161 4.27 13.4484C3.41833 13.0807 2.6775 12.582 2.0475 11.9525C1.4175 11.323 0.918867 10.5821 0.551601 9.73C0.184334 8.87786 0.000467552 7.96786 8.86075e-07 7C-0.00046578 6.03213 0.183401 5.12213 0.551601 4.27C0.9198 3.41787 1.41843 2.67703 2.0475 2.0475C2.67657 1.41797 3.4174 0.919333 4.27 0.5516C5.1226 0.183867 6.0326 0 7 0C7.9674 0 8.87739 0.183867 9.72999 0.5516C10.5826 0.919333 11.3234 1.41797 11.9525 2.0475C12.5816 2.67703 13.0804 3.41787 13.4491 4.27C13.8178 5.12213 14.0014 6.03213 14 7C13.9986 7.96786 13.8147 8.87786 13.4484 9.73C13.0821 10.5821 12.5834 11.323 11.9525 11.9525C11.3216 12.582 10.5807 13.0809 9.72999 13.4491C8.87926 13.8173 7.96926 14.0009 7 14ZM7 12.6C7.63 12.6 8.23666 12.498 8.81999 12.2941C9.40333 12.0902 9.93999 11.7955 10.43 11.41L2.59 3.57C2.205 4.06 1.9103 4.59667 1.7059 5.18C1.5015 5.76333 1.39953 6.37 1.4 7C1.4 8.56333 1.9425 9.8875 3.0275 10.9725C4.1125 12.0575 5.43666 12.6 7 12.6ZM11.41 10.43C11.795 9.94 12.0897 9.40333 12.2941 8.82C12.4985 8.23666 12.6005 7.63 12.6 7C12.6 5.43667 12.0575 4.1125 10.9725 3.0275C9.88749 1.9425 8.56333 1.4 7 1.4C6.37 1.4 5.76333 1.50197 5.18 1.7059C4.59666 1.90983 4.06 2.20453 3.57 2.59L11.41 10.43Z" fill="#FF0000"/>
</svg>
