<svg width="21" height="21" viewBox="0 0 21 21" fill="none" xmlns="http://www.w3.org/2000/svg">
<path d="M17.7188 4.92187H14.7517C14.6651 3.85372 14.1796 2.85729 13.3918 2.13078C12.604 1.40426 11.5717 1.00089 10.5 1.00089C9.42835 1.00089 8.39595 1.40426 7.60816 2.13078C6.82037 2.85729 6.3349 3.85372 6.24832 4.92187H3.28125C2.84613 4.92187 2.42883 5.09472 2.12115 5.4024C1.81348 5.71008 1.64063 6.12737 1.64062 6.5625V16.4062C1.64062 16.8414 1.81348 17.2587 2.12115 17.5663C2.42883 17.874 2.84613 18.0469 3.28125 18.0469H17.7188C18.1539 18.0469 18.5712 17.874 18.8788 17.5663C19.1865 17.2587 19.3594 16.8414 19.3594 16.4062V6.5625C19.3594 6.12737 19.1865 5.71008 18.8788 5.4024C18.5712 5.09472 18.1539 4.92187 17.7188 4.92187ZM10.5 2.95312C11.0523 2.95318 11.586 3.15222 12.0035 3.5138C12.421 3.87537 12.6942 4.37526 12.7731 4.92187H8.22691C8.30581 4.37526 8.57902 3.87537 8.99649 3.5138C9.41395 3.15222 9.94772 2.95318 10.5 2.95312ZM17.3906 16.0781H3.60938V6.89062H6.23438V7.875C6.23438 8.13607 6.33809 8.38645 6.52269 8.57105C6.7073 8.75566 6.95768 8.85937 7.21875 8.85937C7.47982 8.85937 7.7302 8.75566 7.91481 8.57105C8.09941 8.38645 8.20312 8.13607 8.20312 7.875V6.89062H12.7969V7.875C12.7969 8.13607 12.9006 8.38645 13.0852 8.57105C13.2698 8.75566 13.5202 8.85937 13.7812 8.85937C14.0423 8.85937 14.2927 8.75566 14.4773 8.57105C14.6619 8.38645 14.7656 8.13607 14.7656 7.875V6.89062H17.3906V16.0781Z" fill="#F8F8F8"/>
</svg>
