<svg width="38" height="38" viewBox="0 0 38 38" fill="none" xmlns="http://www.w3.org/2000/svg">
<path d="M13.3 25.821L19 20.121L24.7 25.821L25.821 24.7L20.121 19L25.821 13.3L24.7 12.179L19 17.879L13.3 12.179L12.179 13.3L17.879 19L12.179 24.7L13.3 25.821ZM19.0048 33.25C17.0351 33.25 15.1826 32.8763 13.4473 32.129C11.713 31.3806 10.2041 30.3652 8.9205 29.0827C7.63694 27.8002 6.62097 26.2928 5.87258 24.5607C5.12419 22.8285 4.75 20.9765 4.75 19.0047C4.75 17.033 5.12419 15.1805 5.87258 13.4472C6.61992 11.713 7.63378 10.2041 8.91417 8.9205C10.1946 7.63694 11.7024 6.62097 13.4378 5.87258C15.1731 5.12419 17.0256 4.75 18.9952 4.75C20.9649 4.75 22.8174 5.12419 24.5527 5.87258C26.287 6.61992 27.7959 7.63431 29.0795 8.91575C30.3631 10.1972 31.379 11.7051 32.1274 13.4393C32.8758 15.1736 33.25 17.0256 33.25 18.9952C33.25 20.9649 32.8763 22.8174 32.129 24.5527C31.3817 26.2881 30.3662 27.797 29.0827 29.0795C27.7991 30.362 26.2918 31.378 24.5607 32.1274C22.8296 32.8769 20.9776 33.2511 19.0048 33.25ZM19 31.6667C22.5361 31.6667 25.5312 30.4396 27.9854 27.9854C30.4396 25.5312 31.6667 22.5361 31.6667 19C31.6667 15.4639 30.4396 12.4687 27.9854 10.0146C25.5312 7.56042 22.5361 6.33333 19 6.33333C15.4639 6.33333 12.4688 7.56042 10.0146 10.0146C7.56042 12.4687 6.33333 15.4639 6.33333 19C6.33333 22.5361 7.56042 25.5312 10.0146 27.9854C12.4688 30.4396 15.4639 31.6667 19 31.6667Z" fill="black"/>
</svg>
