<svg width="20" height="20" viewBox="0 0 20 20" fill="none" xmlns="http://www.w3.org/2000/svg">
<path d="M10 0.25C4.62342 0.25 0.25 4.6245 0.25 10C0.25 15.3755 4.62342 19.75 10 19.75C15.3766 19.75 19.75 15.3755 19.75 10C19.75 4.6245 15.3766 0.25 10 0.25ZM10 17.5833C5.81942 17.5833 2.41667 14.1817 2.41667 10C2.41667 5.81833 5.81942 2.41667 10 2.41667C14.1806 2.41667 17.5833 5.81833 17.5833 10C17.5833 14.1817 14.1806 17.5833 10 17.5833ZM10.7659 10L13.6324 7.1335C13.734 7.03192 13.791 6.89417 13.791 6.75054C13.791 6.60691 13.734 6.46916 13.6324 6.36758C13.5308 6.26604 13.3931 6.20899 13.2495 6.20899C13.1058 6.20899 12.9681 6.26604 12.8665 6.36758L10 9.23408L7.1335 6.3665C7.03134 6.26783 6.89451 6.21323 6.75249 6.21447C6.61047 6.2157 6.47461 6.27267 6.37418 6.3731C6.27375 6.47353 6.21679 6.60939 6.21555 6.75141C6.21432 6.89343 6.26892 7.03026 6.36758 7.13242L9.23408 10L6.36758 12.8665C6.26587 12.9681 6.20868 13.1059 6.20857 13.2496C6.20847 13.3934 6.26547 13.5312 6.36704 13.633C6.46861 13.7347 6.60642 13.7919 6.75016 13.792C6.8939 13.7921 7.03179 13.7351 7.1335 13.6335L10 10.7659L12.8665 13.6324C12.9164 13.6842 12.9761 13.7256 13.0422 13.754C13.1082 13.7825 13.1792 13.7976 13.2512 13.7983C13.3231 13.799 13.3944 13.7854 13.461 13.7583C13.5276 13.7311 13.5882 13.691 13.6391 13.6402C13.69 13.5894 13.7303 13.529 13.7577 13.4625C13.785 13.3959 13.7988 13.3246 13.7983 13.2527C13.7978 13.1808 13.7829 13.1097 13.7546 13.0436C13.7263 12.9775 13.6852 12.9176 13.6335 12.8676L10.7659 10Z" fill="#F24E1E"/>
</svg>
