<svg width="32" height="33" viewBox="0 0 32 33" fill="none" xmlns="http://www.w3.org/2000/svg">
<g clip-path="url(#clip0_204_1216)">
<path d="M16 30.9375C12.287 30.9375 8.72601 29.4164 6.1005 26.7089C3.475 24.0013 2 20.3291 2 16.5C2 12.6709 3.475 8.9987 6.1005 6.29115C8.72601 3.58359 12.287 2.0625 16 2.0625C19.713 2.0625 23.274 3.58359 25.8995 6.29115C28.525 8.9987 30 12.6709 30 16.5C30 20.3291 28.525 24.0013 25.8995 26.7089C23.274 29.4164 19.713 30.9375 16 30.9375ZM16 33C20.2435 33 24.3131 31.2616 27.3137 28.1673C30.3143 25.0729 32 20.8761 32 16.5C32 12.1239 30.3143 7.92709 27.3137 4.83274C24.3131 1.73839 20.2435 0 16 0C11.7565 0 7.68687 1.73839 4.68629 4.83274C1.68571 7.92709 0 12.1239 0 16.5C0 20.8761 1.68571 25.0729 4.68629 28.1673C7.68687 31.2616 11.7565 33 16 33Z" fill="#B00000"/>
<path d="M9.29196 9.58226C9.38485 9.48623 9.4952 9.41003 9.61669 9.35804C9.73818 9.30606 9.86842 9.2793 9.99996 9.2793C10.1315 9.2793 10.2617 9.30606 10.3832 9.35804C10.5047 9.41003 10.6151 9.48623 10.708 9.58226L16 15.0417L21.292 9.58226C21.3849 9.48638 21.4953 9.41033 21.6168 9.35844C21.7383 9.30654 21.8685 9.27984 22 9.27984C22.1314 9.27984 22.2616 9.30654 22.3831 9.35844C22.5046 9.41033 22.615 9.48638 22.708 9.58226C22.8009 9.67815 22.8747 9.79197 22.925 9.91725C22.9753 10.0425 23.0012 10.1768 23.0012 10.3124C23.0012 10.448 22.9753 10.5823 22.925 10.7075C22.8747 10.8328 22.8009 10.9466 22.708 11.0425L17.414 16.4999L22.708 21.9573C22.8009 22.0531 22.8747 22.167 22.925 22.2923C22.9753 22.4175 23.0012 22.5518 23.0012 22.6874C23.0012 22.823 22.9753 22.9573 22.925 23.0825C22.8747 23.2078 22.8009 23.3216 22.708 23.4175C22.615 23.5134 22.5046 23.5895 22.3831 23.6413C22.2616 23.6932 22.1314 23.7199 22 23.7199C21.8685 23.7199 21.7383 23.6932 21.6168 23.6413C21.4953 23.5895 21.3849 23.5134 21.292 23.4175L16 17.9581L10.708 23.4175C10.615 23.5134 10.5046 23.5895 10.3831 23.6413C10.2616 23.6932 10.1314 23.7199 9.99996 23.7199C9.86847 23.7199 9.73827 23.6932 9.61679 23.6413C9.49531 23.5895 9.38493 23.5134 9.29196 23.4175C9.19898 23.3216 9.12523 23.2078 9.07491 23.0825C9.02459 22.9573 8.99869 22.823 8.99869 22.6874C8.99869 22.5518 9.02459 22.4175 9.07491 22.2923C9.12523 22.167 9.19898 22.0531 9.29196 21.9573L14.586 16.4999L9.29196 11.0425C9.19883 10.9467 9.12494 10.8329 9.07453 10.7076C9.02412 10.5823 8.99817 10.448 8.99817 10.3124C8.99817 10.1767 9.02412 10.0424 9.07453 9.91715C9.12494 9.79186 9.19883 9.67806 9.29196 9.58226Z" fill="#B00000"/>
</g>
<defs>
<clipPath id="clip0_204_1216">
<rect width="32" height="33" fill="white"/>
</clipPath>
</defs>
</svg>
